<?xml version="1.0" standalone="no"?>
<!DOCTYPE svg PUBLIC "-//W3C//DTD SVG 20010904//EN"
 "http://www.w3.org/TR/2001/REC-SVG-20010904/DTD/svg10.dtd">
<svg version="1.0" xmlns="http://www.w3.org/2000/svg"
 width="4063.000000pt" height="4234.000000pt" viewBox="0 0 4063.000000 4234.000000"
 preserveAspectRatio="xMidYMid meet">
<metadata>
Created by potrace 1.16, written by Peter Selinger 2001-2019
</metadata>
<g transform="translate(0.000000,4234.000000) scale(0.100000,-0.100000)"
fill="#fff" stroke="none">
<path d="M7370 42334 c-223 -12 -416 -28 -560 -45 -1062 -125 -1991 -504
-2777 -1133 -1682 -1348 -2804 -3918 -3422 -7841 -334 -2121 -510 -4353 -593
-7535 -18 -658 -18 -3931 0 -4695 28 -1258 66 -2543 76 -2552 2 -2 4453 3781
9891 8407 5438 4626 9885 8406 9882 8398 -3 -7 -69 -152 -147 -323 -360 -787
-740 -1656 -1545 -3535 -1542 -3602 -2325 -5291 -3293 -7105 -1989 -3728
-4057 -6290 -6364 -7887 -162 -112 -170 -116 -280 -146 -242 -67 -471 -95
-768 -94 -302 0 -397 11 -1240 136 -378 55 -564 69 -865 63 -203 -4 -286 -9
-378 -26 -644 -115 -1313 -471 -2167 -1152 -424 -338 -763 -640 -1550 -1380
-403 -379 -580 -541 -759 -698 l-144 -126 7 -450 c55 -3710 509 -6530 1382
-8580 119 -278 368 -779 500 -1005 587 -1003 1265 -1715 2119 -2228 175 -105
555 -292 740 -365 1285 -506 2824 -568 4680 -191 2530 515 5536 1760 10170
4212 1207 638 1868 1000 2095 1147 864 557 1750 1064 4295 2460 3692 2025
5358 3003 7165 4208 4231 2822 6508 5376 7009 7862 77 381 96 586 96 1035 0
383 -6 478 -46 750 -206 1385 -998 2759 -2360 4095 -773 758 -2460 2181 -3036
2562 -143 94 -304 172 -386 185 -81 14 -154 -6 -217 -59 -131 -111 -14443
-13508 -14465 -13540 -65 -96 -84 -270 -45 -429 10 -45 50 -166 88 -270 117
-319 124 -358 143 -835 42 -1025 -124 -2013 -471 -2806 -274 -625 -1104 -1703
-2464 -3198 -1367 -1503 -3123 -3237 -4036 -3986 -764 -627 -1341 -724 -1791
-301 -270 254 -402 586 -369 931 62 658 610 1422 1790 2496 246 224 499 444
1065 925 586 498 741 632 950 820 484 436 729 699 947 1018 237 344 305 510
315 762 8 212 -39 357 -158 484 -114 122 -251 172 -454 163 -212 -9 -401 -83
-670 -265 -547 -369 -1070 -887 -2275 -2252 -742 -841 -980 -1100 -1340 -1460
-691 -691 -1120 -988 -1580 -1097 -131 -30 -331 -41 -450 -24 -424 62 -729
370 -807 816 -23 132 -13 383 21 527 77 332 227 618 508 970 464 582 939 1054
2288 2274 679 614 878 801 1245 1169 340 340 529 542 740 796 144 172 177 219
215 303 151 333 -10 741 -357 902 -225 105 -479 80 -684 -68 -26 -18 -1150
-1118 -2498 -2443 l-2451 -2410 -62 -7 c-277 -32 -695 -27 -933 12 -416 67
-666 235 -751 504 -167 530 327 1456 1456 2726 464 523 1147 1208 1805 1811
1508 1383 3335 2805 4430 3447 257 151 444 233 655 286 36 9 151 39 255 66
462 120 834 174 1275 187 552 15 1135 -61 2106 -277 254 -56 270 -58 285 -42
9 9 185 206 390 437 1553 1748 3251 3606 6699 7330 2721 2939 3966 4294 5278
5744 395 436 490 547 480 556 -7 7 -285 171 -618 365 -333 194 -1185 693
-1895 1108 -4219 2469 -5892 3432 -7745 4459 -2953 1636 -5259 2777 -7171
3549 -2085 842 -3726 1276 -5229 1384 -149 11 -754 21 -870 14z"/>
</g>
</svg>
